<svg width="1460" height="400" version="1.1" viewBox="0 0 1460 400" xmlns="http://www.w3.org/2000/svg">
    <g fill="white">
        <path d="m247.88 96.759v22.965h-78.078v41.928h-57.189v-41.928h-78.375v-22.965h-24.742v241.5 0.741 0.148 1.334c0 30.52 58.966 55.262 131.71 55.262 72.745 0 128.3-23.409 131.56-52.744l0.148-120.16v-125.93zm-52.151 49.189h53.337v53.336h-53.337zm-160.01-0.741h53.336v54.67h-53.336zm212.75 190.38c0 0.444 0 1.037-0.148 1.481-0.148 0.296-0.148 0.741-0.296 1.037-0.149 0.297-0.149 0.593-0.297 0.889-7.556 18.52-52.299 32.743-106.52 32.743-54.225 0-98.82-14.223-106.38-32.743-0.1482-0.296-0.1482-0.592-0.2964-0.741v-115.41h78.079v-36.743h57.041v72.745h-68.745v24.446h93.339v-60.596h54.373v112.9zm-172.9-330.69h131.27v25.928h-131.27zm-27.705 42.966h186.68v25.928h-186.68z"/>
        <path d="m1360.7 251.94v-151.59h19.87v94.845l45.886-50.188h19.461l1.6388 3.4824-37.897 41.174 40.765 58.791-1.6388 3.4824h-19.461l-32.776-47.934-15.978 17.412v30.522zm-110.32-31.547v-44.042q0-31.342 31.342-31.342h26.63q31.342 0 31.342 31.342v29.498h-69.444v16.593q0 12.086 12.086 12.086h53.26v10.447l-9.2181 6.9648h-44.657q-31.342 0-31.342-31.547zm19.87-30.113h49.573v-15.978q0-11.881-11.881-11.881h-25.606q-12.086 0-12.086 11.881zm-128.55 30.113v-44.042q0-31.342 31.342-31.342h26.63q31.342 0 31.342 31.342v29.498h-69.444v16.593q0 12.086 12.086 12.086h53.26v10.447l-9.2181 6.9648h-44.657q-31.342 0-31.342-31.547zm19.87-30.113h49.573v-15.978q0-11.881-11.881-11.881h-25.606q-12.086 0-12.086 11.881zm-130.16 30.113v-44.042q0-31.342 31.547-31.342h58.177v116.35q0 31.547-31.547 31.547h-40.15l-9.423-6.9648v-10.447h49.164q12.086 0 12.086-12.086v-11.471h-38.306q-31.547 0-31.547-31.547zm19.87 2.0485q0 12.086 12.086 12.086h37.897v-72.106h-37.897q-12.086 0-12.086 11.881zm-87.712 29.498v-94.23q7.1697-12.701 27.245-12.701h21.099l9.423 6.9648v10.447h-26.63q-7.9891 0-11.267 4.097v85.422zm-109.5-31.547v-44.042q0-31.342 31.342-31.342h26.63q31.342 0 31.342 31.342v29.498h-69.443v16.593q0 12.086 12.086 12.086h53.26v10.447l-9.2182 6.9648h-44.657q-31.342 0-31.342-31.547zm19.87-30.113h49.573v-15.978q0-11.881-11.881-11.881h-25.606q-12.086 0-12.086 11.881zm-92.122 30.113v-109.8h19.87v34.414h37.897v17.412h-37.897v60.02q0 12.086 12.086 12.086h27.859v10.447l-9.423 6.9648h-19.051q-31.342 0-31.342-31.547zm-96.754 24.582v-10.447h47.32q12.086 0 12.086-12.291 0-12.701-9.8327-14.339l-23.558-3.8921q-26.016-4.5067-26.016-28.679 0-30.318 31.547-30.318h33.39l9.423 6.9648v10.447h-42.404q-12.291 0-12.291 12.291 0 11.471 10.242 13.315l23.762 3.8921q25.606 4.3018 25.606 29.498 0 30.522-31.751 30.522h-38.102zm-39.387-119.22v-21.714h21.304v21.714zm0.81939 126.19v-106.93h19.87v106.93zm-111.08 0v-106.93h57.972q31.342 0 31.342 31.342v75.589h-19.87v-77.637q0-11.881-11.881-11.881h-37.692v89.519zm-76.468 0q-31.547 0-31.547-31.342 0-31.342 31.547-31.342h34.619v-14.954q0-11.881-11.881-11.881h-43.837v-10.447l9.423-6.9648h34.824q31.342 0 31.342 31.342v75.589zm-11.676-29.498q0 12.086 12.086 12.086h34.21v-29.703h-34.21q-12.086 0-12.086 12.086zm-110.45-2.0485v-44.042q0-31.342 31.342-31.342h39.536l9.423 6.9648v10.447h-48.344q-12.086 0-12.086 11.881v48.139q0 12.086 12.086 12.086h48.344v10.447l-9.423 6.9648h-39.536q-31.342 0-31.342-31.547z"/>
    </g>
</svg>